<svg width="40" height="40" viewBox="0 0 40 40" fill="none" xmlns="http://www.w3.org/2000/svg">
<path d="M0 20C0 8.95431 8.95431 0 20 0C31.0457 0 40 8.95431 40 20C40 31.0457 31.0457 40 20 40C8.95431 40 0 31.0457 0 20Z" fill="white"/>
<path fill-rule="evenodd" clip-rule="evenodd" d="M15.9662 14.4188C15.7659 14.2473 15.5083 14.1576 15.2448 14.1678C14.9813 14.178 14.7314 14.2872 14.5449 14.4737C14.3584 14.6601 14.2492 14.9101 14.239 15.1736C14.2288 15.4371 14.3185 15.6947 14.49 15.895L14.5012 15.9081L18.5577 19.9701L14.5182 24.004C14.4154 24.0955 14.3315 24.2064 14.2715 24.3304C14.2087 24.4603 14.1733 24.6018 14.1678 24.746C14.1622 24.8902 14.1865 25.0339 14.2391 25.1683C14.2918 25.3026 14.3716 25.4247 14.4736 25.5267C14.5757 25.6287 14.6977 25.7086 14.8321 25.7612C14.9664 25.8138 15.1102 25.8381 15.2544 25.8326C15.3986 25.827 15.54 25.7917 15.6699 25.7288C15.7939 25.6689 15.9047 25.5851 15.9961 25.4824L20.0356 21.4485L24.0922 25.5051L24.1053 25.5163C24.3056 25.6879 24.5633 25.7775 24.8268 25.7673C25.0903 25.7571 25.3402 25.6479 25.5267 25.4614C25.7131 25.275 25.8224 25.025 25.8325 24.7615C25.8427 24.498 25.7531 24.2404 25.5816 24.0401L25.5703 24.0269L21.5139 19.9705L25.5703 15.9142L25.5816 15.901C25.7531 15.7007 25.8427 15.4431 25.8325 15.1796C25.8224 14.9161 25.7131 14.6661 25.5267 14.4797C25.3402 14.2932 25.0903 14.184 24.8268 14.1738C24.5633 14.1636 24.3056 14.2532 24.1053 14.4248L24.0922 14.436L20.036 18.4922L15.9795 14.4301L15.9662 14.4188Z" fill="#121212"/>
</svg>